<svg width="24" height="24" viewBox="0 0 24 24" fill="none" xmlns="http://www.w3.org/2000/svg">
    <g clip-path="url(#clip0_549_716)">
        <path d="M9.81769 23.6237C11.2525 23.6237 12.7864 23.7618 14.1916 23.4044C16.202 22.8951 17.2003 21.1149 17.4594 19.1777C17.6316 17.8913 17.5568 16.5567 17.5568 15.2618V5.40622C17.5568 4.29601 15.8177 4.29255 15.8177 5.40622V22.7483L16.6873 21.885H8.36371L9.23327 22.7483V11.7809L8.36371 12.6442H16.4559C17.5742 12.6442 17.5777 10.9176 16.4559 10.9176H8.36371C7.89414 10.9176 7.49414 11.313 7.49414 11.7809V22.7483C7.49414 23.2145 7.8924 23.6116 8.36371 23.6116H16.6873C17.1568 23.6116 17.5568 23.2162 17.5568 22.7483V5.40622C17.5568 4.29601 15.8177 4.29255 15.8177 5.40622V13.9064C15.8177 15.1426 15.8229 16.3772 15.8177 17.6133C15.8125 19.0326 15.649 20.9854 14.1272 21.6157C13.4316 21.9023 12.9724 21.8902 12.1968 21.8954C11.4211 21.9005 10.6107 21.8954 9.81769 21.8954C8.69943 21.8954 8.69595 23.622 9.81769 23.622V23.6237Z" fill="#FFD44A" style="fill:#FFD44A;fill:color(display-p3 1.0000 0.8314 0.2902);fill-opacity:1;"/>
        <path d="M11.8906 1.53035C15.3898 4.98186 18.8871 8.43337 22.3862 11.8849L22.1323 11.2737V22.6969L23.0019 21.8336H14.2036C13.0854 21.8336 13.0819 23.5602 14.2036 23.5602H23.0019C23.4715 23.5602 23.8715 23.1648 23.8715 22.6969C23.8715 18.9967 23.9358 15.2915 23.8715 11.5931C23.8523 10.4984 22.7097 9.76805 21.9775 9.0446C20.2488 7.34042 18.5202 5.63453 16.7932 3.93035C15.5689 2.72345 14.3463 1.51653 13.1219 0.309627C12.3272 -0.474258 11.0975 0.746461 11.8923 1.53035H11.8906Z" fill="#FFA24A" style="fill:#FFA24A;fill:color(display-p3 1.0000 0.6353 0.2902);fill-opacity:1;"/>
        <mask id="mask0_549_716" style="mask-type:luminance" maskUnits="userSpaceOnUse" x="7" y="4" width="11" height="20">
            <path d="M7.14453 4.229V23.9953H17.9202V4.229H7.14453ZM17.7306 7.29203C17.0385 6.61001 16.348 5.928 15.6558 5.24598C15.7358 4.69174 16.2123 4.40339 16.6854 4.40339C17.2036 4.40339 17.7289 4.74872 17.7289 5.41001V7.29203H17.7306Z" fill="white" style="fill:white;fill-opacity:1;"/>
        </mask>
        <g mask="url(#mask0_549_716)">
            <path d="M9.81769 23.6242C11.2525 23.6242 12.7864 23.7623 14.1916 23.4049C16.202 22.8956 17.2003 21.1154 17.4594 19.1782C17.6316 17.8918 17.5568 16.5572 17.5568 15.2623V5.40671C17.5568 4.2965 15.8177 4.29304 15.8177 5.40671V22.7488L16.6873 21.8855H8.36371L9.23327 22.7488V11.7814L8.36371 12.6447H16.4559C17.5742 12.6447 17.5777 10.9181 16.4559 10.9181H8.36371C7.89414 10.9181 7.49414 11.3135 7.49414 11.7814V22.7488C7.49414 23.215 7.8924 23.6121 8.36371 23.6121H16.6873C17.1568 23.6121 17.5568 23.2167 17.5568 22.7488V5.40671C17.5568 4.2965 15.8177 4.29304 15.8177 5.40671V13.9069C15.8177 15.1431 15.8229 16.3776 15.8177 17.6138C15.8125 19.0331 15.649 20.9859 14.1272 21.6161C13.4316 21.9028 12.9724 21.8907 12.1968 21.8959C11.4211 21.901 10.6107 21.8959 9.81769 21.8959C8.69943 21.8959 8.69595 23.6225 9.81769 23.6225V23.6242Z" fill="#FFD44A" style="fill:#FFD44A;fill:color(display-p3 1.0000 0.8314 0.2902);fill-opacity:1;"/>
        </g>
        <path d="M1.90477 22.6744V12.2197L1.65078 12.8309C4.99512 9.54169 8.33776 6.25075 11.6821 2.96154C12.1621 2.49018 12.6404 2.01881 13.1204 1.54744C13.9169 0.763551 12.6874 -0.457168 11.8908 0.326716C9.12563 3.04615 6.36215 5.7673 3.59693 8.48672C2.56389 9.5037 1.36034 10.4775 0.436867 11.5964C0.0664309 12.0436 0.167334 12.6341 0.167334 13.1797V22.6761C0.167334 23.7864 1.90646 23.7898 1.90646 22.6761L1.90477 22.6744Z" fill="#FF612A" style="fill:#FF612A;fill:color(display-p3 1.0000 0.3804 0.1647);fill-opacity:1;"/>
    </g>
    <defs>
        <clipPath id="clip0_549_716">
            <rect width="24" height="24" fill="white" style="fill:white;fill-opacity:1;"/>
        </clipPath>
    </defs>
</svg>
